ffmpeg version 4.3.5-0+deb11u1+rpt3 Copyright (c) 2000-2022 the FFmpeg developers
  built with gcc 10 (Raspbian 10.2.1-6+rpi1)
  configuration: --prefix=/usr --extra-version=0+deb11u1+rpt3 --toolchain=hardened --incdir=/usr/include/arm-linux-gnueabihf --enable-gpl --disable-stripping --enable-avresample --disable-filter=resample --enable-gnutls --enable-ladspa --enable-libaom --enable-libass --enable-libbluray --enable-libbs2b --enable-libcaca --enable-libcdio --enable-libcodec2 --enable-libdav1d --enable-libflite --enable-libfontconfig --enable-libfreetype --enable-libfribidi --enable-libgme --enable-libgsm --enable-libjack --enable-libmp3lame --enable-libmysofa --enable-libopenjpeg --enable-libopenmpt --enable-libopus --enable-libpulse --enable-librabbitmq --enable-librsvg --enable-librubberband --enable-libshine --enable-libsnappy --enable-libsoxr --enable-libspeex --enable-libsrt --enable-libssh --enable-libtheora --enable-libtwolame --enable-libvidstab --enable-libvorbis --enable-libvpx --enable-libwavpack --enable-libwebp --enable-libx265 --enable-libxml2 --enable-libxvid --enable-libzmq --enable-libzvbi --enable-lv2 --enable-omx --enable-openal --enable-opencl --enable-opengl --enable-sdl2 --enable-mmal --enable-neon --enable-rpi --enable-v4l2-request --enable-libudev --enable-epoxy --enable-pocketsphinx --enable-libdc1394 --enable-libdrm --enable-vout-drm --enable-libiec61883 --enable-chromaprint --enable-frei0r --enable-libx264 --enable-shared --libdir=/usr/lib/arm-linux-gnueabihf --cpu=arm1176jzf-s --arch=arm
  WARNING: library configuration mismatch
  avutil      configuration: --prefix=/usr --extra-version=0+deb11u1+rpt3 --toolchain=hardened --incdir=/usr/include/arm-linux-gnueabihf --enable-gpl --disable-stripping --enable-avresample --disable-filter=resample --enable-gnutls --enable-ladspa --enable-libaom --enable-libass --enable-libbluray --enable-libbs2b --enable-libcaca --enable-libcdio --enable-libcodec2 --enable-libdav1d --enable-libflite --enable-libfontconfig --enable-libfreetype --enable-libfribidi --enable-libgme --enable-libgsm --enable-libjack --enable-libmp3lame --enable-libmysofa --enable-libopenjpeg --enable-libopenmpt --enable-libopus --enable-libpulse --enable-librabbitmq --enable-librsvg --enable-librubberband --enable-libshine --enable-libsnappy --enable-libsoxr --enable-libspeex --enable-libsrt --enable-libssh --enable-libtheora --enable-libtwolame --enable-libvidstab --enable-libvorbis --enable-libvpx --enable-libwavpack --enable-libwebp --enable-libx265 --enable-libxml2 --enable-libxvid --enable-libzmq --enable-libzvbi --enable-lv2 --enable-omx --enable-openal --enable-opencl --enable-opengl --enable-sdl2 --enable-mmal --enable-neon --enable-rpi --enable-v4l2-request --enable-libudev --enable-epoxy --enable-pocketsphinx --enable-libdc1394 --enable-libdrm --enable-vout-drm --enable-libiec61883 --enable-chromaprint --enable-frei0r --enable-libx264 --libdir=/usr/lib/arm-linux-gnueabihf/neon/vfp --cpu=cortex-a7 --arch=armv6t2 --disable-thumb --enable-shared --disable-doc --disable-programs
  avcodec     configuration: --prefix=/usr --extra-version=0+deb11u1+rpt3 --toolchain=hardened --incdir=/usr/include/arm-linux-gnueabihf --enable-gpl --disable-stripping --enable-avresample --disable-filter=resample --enable-gnutls --enable-ladspa --enable-libaom --enable-libass --enable-libbluray --enable-libbs2b --enable-libcaca --enable-libcdio --enable-libcodec2 --enable-libdav1d --enable-libflite --enable-libfontconfig --enable-libfreetype --enable-libfribidi --enable-libgme --enable-libgsm --enable-libjack --enable-libmp3lame --enable-libmysofa --enable-libopenjpeg --enable-libopenmpt --enable-libopus --enable-libpulse --enable-librabbitmq --enable-librsvg --enable-librubberband --enable-libshine --enable-libsnappy --enable-libsoxr --enable-libspeex --enable-libsrt --enable-libssh --enable-libtheora --enable-libtwolame --enable-libvidstab --enable-libvorbis --enable-libvpx --enable-libwavpack --enable-libwebp --enable-libx265 --enable-libxml2 --enable-libxvid --enable-libzmq --enable-libzvbi --enable-lv2 --enable-omx --enable-openal --enable-opencl --enable-opengl --enable-sdl2 --enable-mmal --enable-neon --enable-rpi --enable-v4l2-request --enable-libudev --enable-epoxy --enable-pocketsphinx --enable-libdc1394 --enable-libdrm --enable-vout-drm --enable-libiec61883 --enable-chromaprint --enable-frei0r --enable-libx264 --libdir=/usr/lib/arm-linux-gnueabihf/neon/vfp --cpu=cortex-a7 --arch=armv6t2 --disable-thumb --enable-shared --disable-doc --disable-programs
  avformat    configuration: --prefix=/usr --extra-version=0+deb11u1+rpt3 --toolchain=hardened --incdir=/usr/include/arm-linux-gnueabihf --enable-gpl --disable-stripping --enable-avresample --disable-filter=resample --enable-gnutls --enable-ladspa --enable-libaom --enable-libass --enable-libbluray --enable-libbs2b --enable-libcaca --enable-libcdio --enable-libcodec2 --enable-libdav1d --enable-libflite --enable-libfontconfig --enable-libfreetype --enable-libfribidi --enable-libgme --enable-libgsm --enable-libjack --enable-libmp3lame --enable-libmysofa --enable-libopenjpeg --enable-libopenmpt --enable-libopus --enable-libpulse --enable-librabbitmq --enable-librsvg --enable-librubberband --enable-libshine --enable-libsnappy --enable-libsoxr --enable-libspeex --enable-libsrt --enable-libssh --enable-libtheora --enable-libtwolame --enable-libvidstab --enable-libvorbis --enable-libvpx --enable-libwavpack --enable-libwebp --enable-libx265 --enable-libxml2 --enable-libxvid --enable-libzmq --enable-libzvbi --enable-lv2 --enable-omx --enable-openal --enable-opencl --enable-opengl --enable-sdl2 --enable-mmal --enable-neon --enable-rpi --enable-v4l2-request --enable-libudev --enable-epoxy --enable-pocketsphinx --enable-libdc1394 --enable-libdrm --enable-vout-drm --enable-libiec61883 --enable-chromaprint --enable-frei0r --enable-libx264 --libdir=/usr/lib/arm-linux-gnueabihf/neon/vfp --cpu=cortex-a7 --arch=armv6t2 --disable-thumb --enable-shared --disable-doc --disable-programs
  avdevice    configuration: --prefix=/usr --extra-version=0+deb11u1+rpt3 --toolchain=hardened --incdir=/usr/include/arm-linux-gnueabihf --enable-gpl --disable-stripping --enable-avresample --disable-filter=resample --enable-gnutls --enable-ladspa --enable-libaom --enable-libass --enable-libbluray --enable-libbs2b --enable-libcaca --enable-libcdio --enable-libcodec2 --enable-libdav1d --enable-libflite --enable-libfontconfig --enable-libfreetype --enable-libfribidi --enable-libgme --enable-libgsm --enable-libjack --enable-libmp3lame --enable-libmysofa --enable-libopenjpeg --enable-libopenmpt --enable-libopus --enable-libpulse --enable-librabbitmq --enable-librsvg --enable-librubberband --enable-libshine --enable-libsnappy --enable-libsoxr --enable-libspeex --enable-libsrt --enable-libssh --enable-libtheora --enable-libtwolame --enable-libvidstab --enable-libvorbis --enable-libvpx --enable-libwavpack --enable-libwebp --enable-libx265 --enable-libxml2 --enable-libxvid --enable-libzmq --enable-libzvbi --enable-lv2 --enable-omx --enable-openal --enable-opencl --enable-opengl --enable-sdl2 --enable-mmal --enable-neon --enable-rpi --enable-v4l2-request --enable-libudev --enable-epoxy --enable-pocketsphinx --enable-libdc1394 --enable-libdrm --enable-vout-drm --enable-libiec61883 --enable-chromaprint --enable-frei0r --enable-libx264 --libdir=/usr/lib/arm-linux-gnueabihf/neon/vfp --cpu=cortex-a7 --arch=armv6t2 --disable-thumb --enable-shared --disable-doc --disable-programs
  avfilter    configuration: --prefix=/usr --extra-version=0+deb11u1+rpt3 --toolchain=hardened --incdir=/usr/include/arm-linux-gnueabihf --enable-gpl --disable-stripping --enable-avresample --disable-filter=resample --enable-gnutls --enable-ladspa --enable-libaom --enable-libass --enable-libbluray --enable-libbs2b --enable-libcaca --enable-libcdio --enable-libcodec2 --enable-libdav1d --enable-libflite --enable-libfontconfig --enable-libfreetype --enable-libfribidi --enable-libgme --enable-libgsm --enable-libjack --enable-libmp3lame --enable-libmysofa --enable-libopenjpeg --enable-libopenmpt --enable-libopus --enable-libpulse --enable-librabbitmq --enable-librsvg --enable-librubberband --enable-libshine --enable-libsnappy --enable-libsoxr --enable-libspeex --enable-libsrt --enable-libssh --enable-libtheora --enable-libtwolame --enable-libvidstab --enable-libvorbis --enable-libvpx --enable-libwavpack --enable-libwebp --enable-libx265 --enable-libxml2 --enable-libxvid --enable-libzmq --enable-libzvbi --enable-lv2 --enable-omx --enable-openal --enable-opencl --enable-opengl --enable-sdl2 --enable-mmal --enable-neon --enable-rpi --enable-v4l2-request --enable-libudev --enable-epoxy --enable-pocketsphinx --enable-libdc1394 --enable-libdrm --enable-vout-drm --enable-libiec61883 --enable-chromaprint --enable-frei0r --enable-libx264 --libdir=/usr/lib/arm-linux-gnueabihf/neon/vfp --cpu=cortex-a7 --arch=armv6t2 --disable-thumb --enable-shared --disable-doc --disable-programs
  avresample  configuration: --prefix=/usr --extra-version=0+deb11u1+rpt3 --toolchain=hardened --incdir=/usr/include/arm-linux-gnueabihf --enable-gpl --disable-stripping --enable-avresample --disable-filter=resample --enable-gnutls --enable-ladspa --enable-libaom --enable-libass --enable-libbluray --enable-libbs2b --enable-libcaca --enable-libcdio --enable-libcodec2 --enable-libdav1d --enable-libflite --enable-libfontconfig --enable-libfreetype --enable-libfribidi --enable-libgme --enable-libgsm --enable-libjack --enable-libmp3lame --enable-libmysofa --enable-libopenjpeg --enable-libopenmpt --enable-libopus --enable-libpulse --enable-librabbitmq --enable-librsvg --enable-librubberband --enable-libshine --enable-libsnappy --enable-libsoxr --enable-libspeex --enable-libsrt --enable-libssh --enable-libtheora --enable-libtwolame --enable-libvidstab --enable-libvorbis --enable-libvpx --enable-libwavpack --enable-libwebp --enable-libx265 --enable-libxml2 --enable-libxvid --enable-libzmq --enable-libzvbi --enable-lv2 --enable-omx --enable-openal --enable-opencl --enable-opengl --enable-sdl2 --enable-mmal --enable-neon --enable-rpi --enable-v4l2-request --enable-libudev --enable-epoxy --enable-pocketsphinx --enable-libdc1394 --enable-libdrm --enable-vout-drm --enable-libiec61883 --enable-chromaprint --enable-frei0r --enable-libx264 --libdir=/usr/lib/arm-linux-gnueabihf/neon/vfp --cpu=cortex-a7 --arch=armv6t2 --disable-thumb --enable-shared --disable-doc --disable-programs
  swscale     configuration: --prefix=/usr --extra-version=0+deb11u1+rpt3 --toolchain=hardened --incdir=/usr/include/arm-linux-gnueabihf --enable-gpl --disable-stripping --enable-avresample --disable-filter=resample --enable-gnutls --enable-ladspa --enable-libaom --enable-libass --enable-libbluray --enable-libbs2b --enable-libcaca --enable-libcdio --enable-libcodec2 --enable-libdav1d --enable-libflite --enable-libfontconfig --enable-libfreetype --enable-libfribidi --enable-libgme --enable-libgsm --enable-libjack --enable-libmp3lame --enable-libmysofa --enable-libopenjpeg --enable-libopenmpt --enable-libopus --enable-libpulse --enable-librabbitmq --enable-librsvg --enable-librubberband --enable-libshine --enable-libsnappy --enable-libsoxr --enable-libspeex --enable-libsrt --enable-libssh --enable-libtheora --enable-libtwolame --enable-libvidstab --enable-libvorbis --enable-libvpx --enable-libwavpack --enable-libwebp --enable-libx265 --enable-libxml2 --enable-libxvid --enable-libzmq --enable-libzvbi --enable-lv2 --enable-omx --enable-openal --enable-opencl --enable-opengl --enable-sdl2 --enable-mmal --enable-neon --enable-rpi --enable-v4l2-request --enable-libudev --enable-epoxy --enable-pocketsphinx --enable-libdc1394 --enable-libdrm --enable-vout-drm --enable-libiec61883 --enable-chromaprint --enable-frei0r --enable-libx264 --libdir=/usr/lib/arm-linux-gnueabihf/neon/vfp --cpu=cortex-a7 --arch=armv6t2 --disable-thumb --enable-shared --disable-doc --disable-programs
  swresample  configuration: --prefix=/usr --extra-version=0+deb11u1+rpt3 --toolchain=hardened --incdir=/usr/include/arm-linux-gnueabihf --enable-gpl --disable-stripping --enable-avresample --disable-filter=resample --enable-gnutls --enable-ladspa --enable-libaom --enable-libass --enable-libbluray --enable-libbs2b --enable-libcaca --enable-libcdio --enable-libcodec2 --enable-libdav1d --enable-libflite --enable-libfontconfig --enable-libfreetype --enable-libfribidi --enable-libgme --enable-libgsm --enable-libjack --enable-libmp3lame --enable-libmysofa --enable-libopenjpeg --enable-libopenmpt --enable-libopus --enable-libpulse --enable-librabbitmq --enable-librsvg --enable-librubberband --enable-libshine --enable-libsnappy --enable-libsoxr --enable-libspeex --enable-libsrt --enable-libssh --enable-libtheora --enable-libtwolame --enable-libvidstab --enable-libvorbis --enable-libvpx --enable-libwavpack --enable-libwebp --enable-libx265 --enable-libxml2 --enable-libxvid --enable-libzmq --enable-libzvbi --enable-lv2 --enable-omx --enable-openal --enable-opencl --enable-opengl --enable-sdl2 --enable-mmal --enable-neon --enable-rpi --enable-v4l2-request --enable-libudev --enable-epoxy --enable-pocketsphinx --enable-libdc1394 --enable-libdrm --enable-vout-drm --enable-libiec61883 --enable-chromaprint --enable-frei0r --enable-libx264 --libdir=/usr/lib/arm-linux-gnueabihf/neon/vfp --cpu=cortex-a7 --arch=armv6t2 --disable-thumb --enable-shared --disable-doc --disable-programs
  postproc    configuration: --prefix=/usr --extra-version=0+deb11u1+rpt3 --toolchain=hardened --incdir=/usr/include/arm-linux-gnueabihf --enable-gpl --disable-stripping --enable-avresample --disable-filter=resample --enable-gnutls --enable-ladspa --enable-libaom --enable-libass --enable-libbluray --enable-libbs2b --enable-libcaca --enable-libcdio --enable-libcodec2 --enable-libdav1d --enable-libflite --enable-libfontconfig --enable-libfreetype --enable-libfribidi --enable-libgme --enable-libgsm --enable-libjack --enable-libmp3lame --enable-libmysofa --enable-libopenjpeg --enable-libopenmpt --enable-libopus --enable-libpulse --enable-librabbitmq --enable-librsvg --enable-librubberband --enable-libshine --enable-libsnappy --enable-libsoxr --enable-libspeex --enable-libsrt --enable-libssh --enable-libtheora --enable-libtwolame --enable-libvidstab --enable-libvorbis --enable-libvpx --enable-libwavpack --enable-libwebp --enable-libx265 --enable-libxml2 --enable-libxvid --enable-libzmq --enable-libzvbi --enable-lv2 --enable-omx --enable-openal --enable-opencl --enable-opengl --enable-sdl2 --enable-mmal --enable-neon --enable-rpi --enable-v4l2-request --enable-libudev --enable-epoxy --enable-pocketsphinx --enable-libdc1394 --enable-libdrm --enable-vout-drm --enable-libiec61883 --enable-chromaprint --enable-frei0r --enable-libx264 --libdir=/usr/lib/arm-linux-gnueabihf/neon/vfp --cpu=cortex-a7 --arch=armv6t2 --disable-thumb --enable-shared --disable-doc --disable-programs
  libavutil      56. 51.100 / 56. 51.100
  libavcodec     58. 91.100 / 58. 91.100
  libavformat    58. 45.100 / 58. 45.100
  libavdevice    58. 10.100 / 58. 10.100
  libavfilter     7. 85.100 /  7. 85.100
  libavresample   4.  0.  0 /  4.  0.  0
  libswscale      5.  7.100 /  5.  7.100
  libswresample   3.  7.100 /  3.  7.100
  libpostproc    55.  7.100 / 55.  7.100
[mov,mp4,m4a,3gp,3g2,mj2 @ 0xad4fb0] Auto-inserting h264_mp4toannexb bitstream filter
Input #0, concat, from 'mylist.txt':
  Duration: N/A, start: 0.000000, bitrate: 2455 kb/s
    Stream #0:0(und): Video: h264 (Constrained Baseline) (avc1 / 0x31637661), yuvj420p(pc), 1920x1080 [SAR 1:1 DAR 16:9], 2455 kb/s, 30 fps, 30 tbr, 15360 tbn, 60 tbc
    Metadata:
      handler_name    : VideoHandler
Stream mapping:
  Stream #0:0 -> #0:0 (h264 (native) -> h264 (libx264))
Press [q] to stop, [?] for help
[libx264 @ 0xad9bc0] using SAR=1/1
[libx264 @ 0xad9bc0] using cpu capabilities: ARMv6 NEON
[libx264 @ 0xad9bc0] profile Constrained Baseline, level 4.0, 4:2:0, 8-bit
[libx264 @ 0xad9bc0] 264 - core 160 r3011 cde9a93 - H.264/MPEG-4 AVC codec - Copyleft 2003-2020 - http://www.videolan.org/x264.html - options: cabac=0 ref=1 deblock=0:0:0 analyse=0:0 me=dia subme=0 psy=1 psy_rd=1.00:0.00 mixed_ref=0 me_range=16 chroma_me=1 trellis=0 8x8dct=0 cqm=0 deadzone=21,11 fast_pskip=1 chroma_qp_offset=0 threads=6 lookahead_threads=1 sliced_threads=0 nr=0 decimate=1 interlaced=0 bluray_compat=0 constrained_intra=0 bframes=0 weightp=0 keyint=250 keyint_min=25 scenecut=0 intra_refresh=0 rc=crf mbtree=0 crf=23.0 qcomp=0.60 qpmin=0 qpmax=69 qpstep=4 ip_ratio=1.40 aq=0
Output #0, mp4, to '/home/raspi/Desktop/Zeitraffer/Video_komplett/timelapse_video_merged.mp4':
  Metadata:
    encoder         : Lavf58.45.100
    Stream #0:0(und): Video: h264 (libx264) (avc1 / 0x31637661), yuvj420p(pc), 1920x1080 [SAR 1:1 DAR 16:9], q=-1--1, 30 fps, 15360 tbn, 30 tbc
    Metadata:
      handler_name    : VideoHandler
      encoder         : Lavc58.91.100 libx264
    Side data:
      cpb: bitrate max/min/avg: 0/0/0 buffer size: 0 vbv_delay: N/A
frame=    4 fps=0.0 q=0.0 size=       0kB time=00:00:00.00 bitrate=N/A dup=0 drop=1 speed=   0x    frame=    6 fps=5.6 q=0.0 size=       0kB time=00:00:00.00 bitrate=N/A dup=0 drop=8 speed=   0x    frame=    8 fps=5.0 q=24.0 size=       0kB time=00:00:00.00 bitrate=5907.7kbits/s dup=0 drop=13 speed=4.08e-05x    frame=   10 fps=4.8 q=22.0 size=       0kB time=00:00:00.06 bitrate=   5.8kbits/s dup=0 drop=21 speed=0.0317x    frame=   12 fps=4.6 q=22.0 size=     256kB time=00:00:00.13 bitrate=15723.9kbits/s dup=0 drop=27 speed=0.051x    frame=   15 fps=4.8 q=22.0 size=     256kB time=00:00:00.23 bitrate=8986.9kbits/s dup=0 drop=34 speed=0.0747x    frame=   17 fps=4.7 q=22.0 size=     256kB time=00:00:00.30 bitrate=6990.3kbits/s dup=0 drop=41 speed=0.0825x    frame=   20 fps=4.8 q=22.0 size=     512kB time=00:00:00.40 bitrate=10485.0kbits/s dup=0 drop=49 speed=0.0966x    frame=   22 fps=4.7 q=21.0 size=     512kB time=00:00:00.46 bitrate=8987.4kbits/s dup=0 drop=57 speed=0.0989x    frame=   25 fps=4.8 q=18.0 size=     768kB time=00:00:00.56 bitrate=11102.0kbits/s dup=0 drop=64 speed=0.108x    frame=   28 fps=4.8 q=16.0 size=     768kB time=00:00:00.66 bitrate=9436.8kbits/s dup=0 drop=73 speed=0.115x    frame=   31 fps=4.9 q=16.0 size=     768kB time=00:00:00.76 bitrate=8206.0kbits/s dup=0 drop=84 speed=0.122x    frame=   34 fps=5.0 q=15.0 size=     768kB time=00:00:00.86 bitrate=7259.3kbits/s dup=0 drop=91 speed=0.127x    frame=   38 fps=5.2 q=15.0 size=     768kB time=00:00:01.00 bitrate=6291.4kbits/s dup=0 drop=103 speed=0.136x    frame=   41 fps=5.2 q=15.0 size=     768kB time=00:00:01.10 bitrate=5719.5kbits/s dup=0 drop=112 speed=0.14x    frame=   44 fps=5.2 q=15.0 size=     768kB time=00:00:01.20 bitrate=5242.9kbits/s dup=0 drop=122 speed=0.143x    [mov,mp4,m4a,3gp,3g2,mj2 @ 0xad4fb0] Auto-inserting h264_mp4toannexb bitstream filter
frame=   47 fps=5.3 q=15.0 size=     768kB time=00:00:01.30 bitrate=4839.6kbits/s dup=0 drop=131 speed=0.146x    frame=   51 fps=5.4 q=15.0 size=     768kB time=00:00:01.43 bitrate=4389.5kbits/s dup=0 drop=142 speed=0.152x    frame=   54 fps=5.4 q=15.0 size=     768kB time=00:00:01.53 bitrate=4103.2kbits/s dup=0 drop=151 speed=0.153x    frame=   57 fps=5.4 q=15.0 size=     768kB time=00:00:01.63 bitrate=3852.0kbits/s dup=0 drop=162 speed=0.155x    frame=   61 fps=5.5 q=16.0 size=     768kB time=00:00:01.76 bitrate=3561.3kbits/s dup=0 drop=172 speed=0.16x    frame=   64 fps=5.6 q=15.0 size=     768kB time=00:00:01.86 bitrate=3370.5kbits/s dup=0 drop=182 speed=0.162x    frame=   67 fps=5.6 q=16.0 size=     768kB time=00:00:01.96 bitrate=3199.1kbits/s dup=0 drop=192 speed=0.163x    frame=   71 fps=5.6 q=15.0 size=     768kB time=00:00:02.10 bitrate=2996.0kbits/s dup=0 drop=202 speed=0.167x    frame=   74 fps=5.7 q=15.0 size=     768kB time=00:00:02.20 bitrate=2859.8kbits/s dup=0 drop=211 speed=0.168x    frame=   77 fps=5.7 q=16.0 size=    1024kB time=00:00:02.30 bitrate=3647.3kbits/s dup=0 drop=222 speed=0.169x    frame=   80 fps=5.6 q=15.0 size=    1024kB time=00:00:02.40 bitrate=3495.3kbits/s dup=0 drop=229 speed=0.169x    frame=   83 fps=5.7 q=15.0 size=    1024kB time=00:00:02.50 bitrate=3355.5kbits/s dup=0 drop=238 speed=0.17x    frame=   86 fps=5.7 q=15.0 size=    1024kB time=00:00:02.60 bitrate=3226.5kbits/s dup=0 drop=249 speed=0.171x    frame=   90 fps=5.7 q=16.0 size=    1024kB time=00:00:02.73 bitrate=3069.1kbits/s dup=0 drop=259 speed=0.174x    [mov,mp4,m4a,3gp,3g2,mj2 @ 0xad4fb0] Auto-inserting h264_mp4toannexb bitstream filter
frame=   93 fps=5.7 q=16.0 size=    1024kB time=00:00:02.83 bitrate=2960.8kbits/s dup=0 drop=268 speed=0.174x    frame=   95 fps=5.7 q=16.0 size=    1024kB time=00:00:02.90 bitrate=2892.7kbits/s dup=0 drop=276 speed=0.173x    frame=   98 fps=5.7 q=23.0 size=    1024kB time=00:00:03.00 bitrate=2796.3kbits/s dup=0 drop=283 speed=0.174x    frame=  100 fps=5.6 q=22.0 size=    1024kB time=00:00:03.06 bitrate=2735.5kbits/s dup=0 drop=289 speed=0.172x    frame=  102 fps=5.6 q=21.0 size=    1024kB time=00:00:03.13 bitrate=2677.3kbits/s dup=0 drop=295 speed=0.171x    frame=  104 fps=5.5 q=24.0 size=    1024kB time=00:00:03.20 bitrate=2621.5kbits/s dup=0 drop=303 speed=0.17x    frame=  107 fps=5.5 q=22.0 size=    1280kB time=00:00:03.30 bitrate=3177.6kbits/s dup=0 drop=310 speed=0.17x    frame=  108 fps=5.4 q=22.0 size=    1280kB time=00:00:03.33 bitrate=3145.8kbits/s dup=0 drop=315 speed=0.167x    frame=  111 fps=5.4 q=24.0 size=    1536kB time=00:00:03.43 bitrate=3665.0kbits/s dup=0 drop=322 speed=0.168x    frame=  113 fps=5.4 q=24.0 size=    1536kB time=00:00:03.50 bitrate=3595.2kbits/s dup=0 drop=328 speed=0.167x    frame=  115 fps=5.3 q=23.0 size=    1536kB time=00:00:03.56 bitrate=3528.0kbits/s dup=0 drop=335 speed=0.166x    frame=  116 fps=5.3 q=23.0 size=    1792kB time=00:00:03.60 bitrate=4077.8kbits/s dup=0 drop=339 speed=0.163x    frame=  119 fps=5.3 q=23.0 size=    1792kB time=00:00:03.70 bitrate=3967.6kbits/s dup=0 drop=346 speed=0.164x    frame=  121 fps=5.2 q=23.0 size=    2048kB time=00:00:03.76 bitrate=4454.2kbits/s dup=0 drop=353 speed=0.163x    frame=  123 fps=5.2 q=24.0 size=    2048kB time=00:00:03.83 bitrate=4376.7kbits/s dup=0 drop=358 speed=0.161x    frame=  125 fps=5.1 q=24.0 size=    2304kB time=00:00:03.90 bitrate=4839.6kbits/s dup=0 drop=366 speed=0.161x    frame=  127 fps=5.1 q=25.0 size=    2304kB time=00:00:03.96 bitrate=4758.3kbits/s dup=0 drop=371 speed=0.16x    frame=  129 fps=5.1 q=25.0 size=    2304kB time=00:00:04.03 bitrate=4679.6kbits/s dup=0 drop=376 speed=0.159x    frame=  131 fps=5.1 q=24.0 size=    2560kB time=00:00:04.10 bitrate=5115.0kbits/s dup=0 drop=383 speed=0.158x    frame=  133 fps=5.0 q=24.0 size=    2560kB time=00:00:04.16 bitrate=5033.2kbits/s dup=0 drop=388 speed=0.158x    frame=  135 fps=5.0 q=26.0 size=    2816kB time=00:00:04.23 bitrate=5449.3kbits/s dup=0 drop=394 speed=0.157x    frame=  137 fps=5.0 q=25.0 size=    2816kB time=00:00:04.30 bitrate=5364.8kbits/s dup=0 drop=400 speed=0.156x    [mov,mp4,m4a,3gp,3g2,mj2 @ 0xad4fb0] Auto-inserting h264_mp4toannexb bitstream filter
frame=  138 fps=4.9 q=24.0 size=    2816kB time=00:00:04.33 bitrate=5323.5kbits/s dup=0 drop=405 speed=0.154x    frame=  141 fps=4.9 q=25.0 size=    3072kB time=00:00:04.43 bitrate=5676.5kbits/s dup=0 drop=412 speed=0.155x    frame=  143 fps=4.9 q=24.0 size=    3072kB time=00:00:04.50 bitrate=5592.4kbits/s dup=0 drop=418 speed=0.154x    frame=  145 fps=4.9 q=24.0 size=    3328kB time=00:00:04.56 bitrate=5970.0kbits/s dup=0 drop=424 speed=0.154x    [mov,mp4,m4a,3gp,3g2,mj2 @ 0xad4fb0] Auto-inserting h264_mp4toannexb bitstream filter
frame=  147 fps=4.9 q=23.0 size=    3328kB time=00:00:04.63 bitrate=5884.1kbits/s dup=0 drop=430 speed=0.153x    frame=  149 fps=4.8 q=26.0 size=    3584kB time=00:00:04.70 bitrate=6246.8kbits/s dup=0 drop=436 speed=0.153x    frame=  151 fps=4.8 q=24.0 size=    3584kB time=00:00:04.76 bitrate=6159.5kbits/s dup=0 drop=442 speed=0.153x    frame=  153 fps=4.8 q=23.0 size=    3584kB time=00:00:04.83 bitrate=6074.5kbits/s dup=0 drop=450 speed=0.152x    frame=  155 fps=4.8 q=22.0 size=    3840kB time=00:00:04.90 bitrate=6419.8kbits/s dup=0 drop=456 speed=0.152x    frame=  158 fps=4.8 q=22.0 size=    3840kB time=00:00:05.00 bitrate=6291.5kbits/s dup=0 drop=464 speed=0.152x    frame=  160 fps=4.8 q=22.0 size=    3840kB time=00:00:05.06 bitrate=6208.7kbits/s dup=0 drop=471 speed=0.151x    frame=  163 fps=4.8 q=23.0 size=    4096kB time=00:00:05.16 bitrate=6494.4kbits/s dup=0 drop=478 speed=0.152x    frame=  166 fps=4.8 q=20.0 size=    4352kB time=00:00:05.26 bitrate=6769.3kbits/s dup=0 drop=487 speed=0.152x    frame=  169 fps=4.8 q=17.0 size=    4352kB time=00:00:05.36 bitrate=6643.1kbits/s dup=0 drop=498 speed=0.152x    frame=  172 fps=4.8 q=16.0 size=    4352kB time=00:00:05.46 bitrate=6521.6kbits/s dup=0 drop=505 speed=0.153x    frame=  176 fps=4.8 q=16.0 size=    4352kB time=00:00:05.60 bitrate=6366.3kbits/s dup=0 drop=517 speed=0.154x    frame=  180 fps=4.9 q=15.0 size=    4352kB time=00:00:05.73 bitrate=6218.3kbits/s dup=0 drop=529 speed=0.155x    frame=  183 fps=4.9 q=15.0 size=    4352kB time=00:00:05.83 bitrate=6111.7kbits/s dup=0 drop=540 speed=0.156x    frame=  187 fps=4.9 q=15.0 size=    4608kB time=00:00:05.96 bitrate=6326.6kbits/s dup=0 drop=550 speed=0.157x    frame=  190 fps=4.9 q=15.0 size=    4608kB time=00:00:06.06 bitrate=6222.3kbits/s dup=0 drop=561 speed=0.158x    [mov,mp4,m4a,3gp,3g2,mj2 @ 0xad4fb0] Auto-inserting h264_mp4toannexb bitstream filter
frame=  194 fps=5.0 q=16.0 size=    4608kB time=00:00:06.20 bitrate=6088.5kbits/s dup=0 drop=571 speed=0.159x    frame=  197 fps=5.0 q=15.0 size=    4608kB time=00:00:06.30 bitrate=5991.9kbits/s dup=0 drop=582 speed=0.159x    frame=  201 fps=5.0 q=15.0 size=    4608kB time=00:00:06.43 bitrate=5867.7kbits/s dup=0 drop=592 speed=0.161x    frame=  204 fps=5.0 q=16.0 size=    4608kB time=00:00:06.53 bitrate=5777.9kbits/s dup=0 drop=603 speed=0.161x    frame=  208 fps=5.1 q=16.0 size=    4608kB time=00:00:06.66 bitrate=5662.3kbits/s dup=0 drop=613 speed=0.162x    frame=  212 fps=5.1 q=16.0 size=    4608kB time=00:00:06.80 bitrate=5551.3kbits/s dup=0 drop=625 speed=0.163x    frame=  215 fps=5.1 q=15.0 size=    4608kB time=00:00:06.90 bitrate=5470.8kbits/s dup=0 drop=634 speed=0.164x    frame=  219 fps=5.1 q=16.0 size=    4608kB time=00:00:07.03 bitrate=5367.1kbits/s dup=0 drop=646 speed=0.165x    frame=  221 fps=5.1 q=16.0 size=    4608kB time=00:00:07.10 bitrate=5316.7kbits/s dup=0 drop=654 speed=0.165x    frame=  225 fps=5.2 q=16.0 size=    4608kB time=00:00:07.23 bitrate=5218.7kbits/s dup=0 drop=664 speed=0.166x    frame=  228 fps=5.2 q=16.0 size=    4608kB time=00:00:07.33 bitrate=5147.6kbits/s dup=0 drop=674 speed=0.166x    frame=  231 fps=5.2 q=16.0 size=    4608kB time=00:00:07.43 bitrate=5078.3kbits/s dup=0 drop=684 speed=0.166x    frame=  235 fps=5.2 q=15.0 size=    4608kB time=00:00:07.56 bitrate=4988.8kbits/s dup=0 drop=694 speed=0.168x    [mov,mp4,m4a,3gp,3g2,mj2 @ 0xad4fb0] Auto-inserting h264_mp4toannexb bitstream filter
frame=  237 fps=5.2 q=16.0 size=    4608kB time=00:00:07.63 bitrate=4945.3kbits/s dup=0 drop=702 speed=0.167x    frame=  240 fps=5.2 q=26.0 size=    4608kB time=00:00:07.73 bitrate=4881.3kbits/s dup=0 drop=709 speed=0.167x    frame=  242 fps=5.2 q=24.0 size=    4608kB time=00:00:07.80 bitrate=4839.6kbits/s dup=0 drop=715 speed=0.167x    frame=  243 fps=5.1 q=23.0 size=    4608kB time=00:00:07.83 bitrate=4819.0kbits/s dup=0 drop=720 speed=0.165x    frame=  245 fps=5.1 q=22.0 size=    4864kB time=00:00:07.90 bitrate=5043.8kbits/s dup=0 drop=725 speed=0.165x    frame=  247 fps=5.1 q=22.0 size=    4864kB time=00:00:07.96 bitrate=5001.6kbits/s dup=0 drop=732 speed=0.164x    frame=  249 fps=5.1 q=22.0 size=    4864kB time=00:00:08.03 bitrate=4960.1kbits/s dup=0 drop=737 speed=0.164x    frame=  252 fps=5.1 q=22.0 size=    5120kB time=00:00:08.13 bitrate=5156.9kbits/s dup=0 drop=745 speed=0.164x    frame=  254 fps=5.1 q=25.0 size=    5120kB time=00:00:08.20 bitrate=5115.0kbits/s dup=0 drop=751 speed=0.164x    frame=  256 fps=5.1 q=25.0 size=    5120kB time=00:00:08.26 bitrate=5073.8kbits/s dup=0 drop=759 speed=0.163x    frame=  259 fps=5.1 q=24.0 size=    5376kB time=00:00:08.36 bitrate=5263.8kbits/s dup=0 drop=766 speed=0.164x    frame=  260 fps=5.0 q=24.0 size=    5376kB time=00:00:08.40 bitrate=5242.9kbits/s dup=0 drop=771 speed=0.162x    frame=  263 fps=5.0 q=24.0 size=    5632kB time=00:00:08.50 bitrate=5427.9kbits/s dup=0 drop=778 speed=0.162x    frame=  265 fps=5.0 q=24.0 size=    5632kB time=00:00:08.56 bitrate=5385.7kbits/s dup=0 drop=784 speed=0.162x    frame=  267 fps=5.0 q=24.0 size=    5888kB time=00:00:08.63 bitrate=5587.0kbits/s dup=0 drop=790 speed=0.161x    frame=  269 fps=5.0 q=25.0 size=    5888kB time=00:00:08.70 bitrate=5544.2kbits/s dup=0 drop=796 speed=0.161x    frame=  271 fps=5.0 q=25.0 size=    6144kB time=00:00:08.76 bitrate=5741.3kbits/s dup=0 drop=802 speed=0.16x    frame=  273 fps=4.9 q=25.0 size=    6144kB time=00:00:08.83 bitrate=5697.9kbits/s dup=0 drop=809 speed=0.16x    frame=  275 fps=4.9 q=24.0 size=    6400kB time=00:00:08.90 bitrate=5890.9kbits/s dup=0 drop=814 speed=0.159x    frame=  277 fps=4.9 q=24.0 size=    6400kB time=00:00:08.96 bitrate=5847.1kbits/s dup=0 drop=822 speed=0.159x    frame=  279 fps=4.9 q=23.0 size=    6400kB time=00:00:09.03 bitrate=5803.9kbits/s dup=0 drop=828 speed=0.159x    [mov,mp4,m4a,3gp,3g2,mj2 @ 0xad4fb0] Auto-inserting h264_mp4toannexb bitstream filter
frame=  281 fps=4.9 q=23.0 size=    6656kB time=00:00:09.10 bitrate=5991.9kbits/s dup=0 drop=832 speed=0.159x    frame=  283 fps=4.9 q=24.0 size=    6656kB time=00:00:09.16 bitrate=5948.3kbits/s dup=0 drop=839 speed=0.158x    frame=  286 fps=4.9 q=24.0 size=    6912kB time=00:00:09.26 bitrate=6110.4kbits/s dup=0 drop=847 speed=0.158x    frame=  288 fps=4.9 q=24.0 size=    6912kB time=00:00:09.33 bitrate=6066.8kbits/s dup=0 drop=853 speed=0.158x    frame=  290 fps=4.9 q=23.0 size=    7168kB time=00:00:09.40 bitrate=6246.8kbits/s dup=0 drop=861 speed=0.157x    frame=  292 fps=4.8 q=25.0 size=    7168kB time=00:00:09.46 bitrate=6202.8kbits/s dup=0 drop=867 speed=0.157x    frame=  295 fps=4.8 q=24.0 size=    7424kB time=00:00:09.56 bitrate=6357.2kbits/s dup=0 drop=874 speed=0.157x    frame=  297 fps=4.8 q=24.0 size=    7424kB time=00:00:09.63 bitrate=6313.2kbits/s dup=0 drop=880 speed=0.157x    frame=  299 fps=4.8 q=24.0 size=    7424kB time=00:00:09.70 bitrate=6269.8kbits/s dup=0 drop=888 speed=0.157x    frame=  301 fps=4.8 q=24.0 size=    7680kB time=00:00:09.76 bitrate=6441.8kbits/s dup=0 drop=894 speed=0.156x    frame=  304 fps=4.8 q=24.0 size=    7680kB time=00:00:09.86 bitrate=6376.5kbits/s dup=0 drop=901 speed=0.157x    frame=  306 fps=4.8 q=24.0 size=    7936kB time=00:00:09.93 bitrate=6544.8kbits/s dup=0 drop=907 speed=0.156x    frame=  308 fps=4.8 q=24.0 size=    7936kB time=00:00:10.00 bitrate=6501.2kbits/s dup=0 drop=915 speed=0.156x    frame=  311 fps=4.8 q=24.0 size=    8192kB time=00:00:10.10 bitrate=6644.4kbits/s dup=0 drop=922 speed=0.156x    frame=  313 fps=4.8 q=23.0 size=    8192kB time=00:00:10.16 bitrate=6600.9kbits/s dup=0 drop=928 speed=0.156x    frame=  315 fps=4.8 q=24.0 size=    8192kB time=00:00:10.23 bitrate=6557.9kbits/s dup=0 drop=935 speed=0.156x    frame=  317 fps=4.8 q=23.0 size=    8448kB time=00:00:10.30 bitrate=6719.0kbits/s dup=0 drop=940 speed=0.156x    frame=  319 fps=4.8 q=23.0 size=    8448kB time=00:00:10.36 bitrate=6675.8kbits/s dup=0 drop=947 speed=0.156x    frame=  321 fps=4.8 q=23.0 size=    8704kB time=00:00:10.43 bitrate=6834.2kbits/s dup=0 drop=953 speed=0.155x    frame=  324 fps=4.8 q=23.0 size=    8704kB time=00:00:10.53 bitrate=6769.3kbits/s dup=0 drop=961 speed=0.155x    [mov,mp4,m4a,3gp,3g2,mj2 @ 0xad4fb0] Auto-inserting h264_mp4toannexb bitstream filter
frame=  326 fps=4.8 q=23.0 size=    8704kB time=00:00:10.60 bitrate=6726.7kbits/s dup=0 drop=967 speed=0.155x    frame=  328 fps=4.8 q=24.0 size=    8960kB time=00:00:10.66 bitrate=6881.3kbits/s dup=0 drop=973 speed=0.155x    frame=  330 fps=4.8 q=23.0 size=    8960kB time=00:00:10.73 bitrate=6838.5kbits/s dup=0 drop=979 speed=0.155x    frame=  332 fps=4.7 q=23.0 size=    8960kB time=00:00:10.80 bitrate=6796.3kbits/s dup=0 drop=987 speed=0.154x    frame=  335 fps=4.7 q=23.0 size=    9216kB time=00:00:10.90 bitrate=6926.4kbits/s dup=0 drop=994 speed=0.154x    frame=  337 fps=4.7 q=23.0 size=    9216kB time=00:00:10.96 bitrate=6884.3kbits/s dup=0 drop=1002 speed=0.154x    frame=  339 fps=4.7 q=23.0 size=    9216kB time=00:00:11.03 bitrate=6842.7kbits/s dup=0 drop=1008 speed=0.154x    frame=  341 fps=4.7 q=23.0 size=    9472kB time=00:00:11.10 bitrate=6990.5kbits/s dup=0 drop=1014 speed=0.154x    frame=  344 fps=4.7 q=22.0 size=    9472kB time=00:00:11.20 bitrate=6928.1kbits/s dup=0 drop=1023 speed=0.154x    frame=  347 fps=4.7 q=18.0 size=    9728kB time=00:00:11.30 bitrate=7052.4kbits/s dup=0 drop=1030 speed=0.154x    frame=  350 fps=4.7 q=16.0 size=    9728kB time=00:00:11.40 bitrate=6990.5kbits/s dup=0 drop=1039 speed=0.154x    frame=  353 fps=4.8 q=16.0 size=    9728kB time=00:00:11.50 bitrate=6929.7kbits/s dup=0 drop=1048 speed=0.155x    frame=  357 fps=4.8 q=15.0 size=    9728kB time=00:00:11.63 bitrate=6850.3kbits/s dup=0 drop=1060 speed=0.155x    frame=  360 fps=4.8 q=15.0 size=    9728kB time=00:00:11.73 bitrate=6791.9kbits/s dup=0 drop=1070 speed=0.156x    frame=  364 fps=4.8 q=15.0 size=    9728kB time=00:00:11.86 bitrate=6715.6kbits/s dup=0 drop=1081 speed=0.156x    frame=  367 fps=4.8 q=15.0 size=    9728kB time=00:00:11.96 bitrate=6659.5kbits/s dup=0 drop=1091 speed=0.157x    [mov,mp4,m4a,3gp,3g2,mj2 @ 0xad4fb0] Auto-inserting h264_mp4toannexb bitstream filter
frame=  371 fps=4.8 q=15.0 size=    9984kB time=00:00:12.10 bitrate=6759.4kbits/s dup=0 drop=1102 speed=0.157x    frame=  374 fps=4.8 q=15.0 size=    9984kB time=00:00:12.20 bitrate=6704.0kbits/s dup=0 drop=1112 speed=0.158x    frame=  378 fps=4.9 q=16.0 size=    9984kB time=00:00:12.33 bitrate=6631.5kbits/s dup=0 drop=1123 speed=0.158x    frame=  381 fps=4.9 q=15.0 size=    9984kB time=00:00:12.43 bitrate=6578.2kbits/s dup=0 drop=1134 speed=0.158x    frame=  385 fps=4.9 q=15.0 size=    9984kB time=00:00:12.56 bitrate=6508.4kbits/s dup=0 drop=1144 speed=0.159x    frame=  388 fps=4.9 q=16.0 size=    9984kB time=00:00:12.66 bitrate=6457.0kbits/s dup=0 drop=1155 speed=0.159x    frame=  392 fps=4.9 q=16.0 size=    9984kB time=00:00:12.80 bitrate=6389.8kbits/s dup=0 drop=1165 speed=0.16x    frame=  395 fps=4.9 q=15.0 size=    9984kB time=00:00:12.90 bitrate=6340.2kbits/s dup=0 drop=1176 speed=0.16x    frame=  399 fps=4.9 q=15.0 size=    9984kB time=00:00:13.03 bitrate=6275.4kbits/s dup=0 drop=1186 speed=0.161x    frame=  402 fps=4.9 q=15.0 size=    9984kB time=00:00:13.13 bitrate=6227.6kbits/s dup=0 drop=1195 speed=0.161x    frame=  406 fps=4.9 q=16.0 size=    9984kB time=00:00:13.26 bitrate=6165.0kbits/s dup=0 drop=1207 speed=0.161x    frame=  409 fps=4.9 q=15.0 size=    9984kB time=00:00:13.36 bitrate=6118.9kbits/s dup=0 drop=1217 speed=0.162x    frame=  413 fps=5.0 q=16.0 size=    9984kB time=00:00:13.50 bitrate=6058.4kbits/s dup=0 drop=1228 speed=0.162x    [mov,mp4,m4a,3gp,3g2,mj2 @ 0xad4fb0] Auto-inserting h264_mp4toannexb bitstream filter
frame=  416 fps=5.0 q=15.0 size=    9984kB time=00:00:13.60 bitrate=6013.9kbits/s dup=0 drop=1237 speed=0.162x    frame=  419 fps=5.0 q=16.0 size=    9984kB time=00:00:13.70 bitrate=5970.0kbits/s dup=0 drop=1246 speed=0.163x    frame=  422 fps=5.0 q=23.0 size=    9984kB time=00:00:13.80 bitrate=5926.7kbits/s dup=0 drop=1255 speed=0.163x    frame=  424 fps=5.0 q=22.0 size=    9984kB time=00:00:13.86 bitrate=5898.2kbits/s dup=0 drop=1261 speed=0.163x    frame=  426 fps=5.0 q=22.0 size=   10240kB time=00:00:13.93 bitrate=6020.5kbits/s dup=0 drop=1269 speed=0.162x    frame=  428 fps=5.0 q=22.0 size=   10240kB time=00:00:14.00 bitrate=5991.9kbits/s dup=0 drop=1275 speed=0.162x    frame=  431 fps=5.0 q=22.0 size=   10240kB time=00:00:14.10 bitrate=5949.4kbits/s dup=0 drop=1283 speed=0.162x    frame=  433 fps=5.0 q=22.0 size=   10496kB time=00:00:14.16 bitrate=6069.4kbits/s dup=0 drop=1289 speed=0.162x    frame=  436 fps=5.0 q=24.0 size=   10496kB time=00:00:14.26 bitrate=6026.9kbits/s dup=0 drop=1297 speed=0.162x    frame=  438 fps=4.9 q=24.0 size=   10496kB time=00:00:14.33 bitrate=5998.8kbits/s dup=0 drop=1303 speed=0.162x    frame=  440 fps=4.9 q=24.0 size=   10752kB time=00:00:14.40 bitrate=6116.7kbits/s dup=0 drop=1309 speed=0.162x    frame=  442 fps=4.9 q=24.0 size=   10752kB time=00:00:14.46 bitrate=6088.5kbits/s dup=0 drop=1315 speed=0.161x    frame=  445 fps=4.9 q=24.0 size=   11008kB time=00:00:14.56 bitrate=6190.7kbits/s dup=0 drop=1324 speed=0.161x    frame=  447 fps=4.9 q=24.0 size=   11008kB time=00:00:14.63 bitrate=6162.5kbits/s dup=0 drop=1330 speed=0.161x    frame=  449 fps=4.9 q=24.0 size=   11008kB time=00:00:14.70 bitrate=6134.5kbits/s dup=0 drop=1336 speed=0.161x    frame=  451 fps=4.9 q=25.0 size=   11264kB time=00:00:14.76 bitrate=6248.8kbits/s dup=0 drop=1342 speed=0.161x    frame=  453 fps=4.9 q=24.0 size=   11264kB time=00:00:14.83 bitrate=6220.8kbits/s dup=0 drop=1350 speed=0.16x    frame=  456 fps=4.9 q=23.0 size=   11520kB time=00:00:14.93 bitrate=6319.5kbits/s dup=0 drop=1357 speed=0.161x    frame=  457 fps=4.9 q=23.0 size=   11520kB time=00:00:14.96 bitrate=6305.5kbits/s dup=0 drop=1360 speed=0.16x    frame=  459 fps=4.9 q=23.0 size=   11776kB time=00:00:15.03 bitrate=6417.0kbits/s dup=0 drop=1368 speed=0.16x    [mov,mp4,m4a,3gp,3g2,mj2 @ 0xad4fb0] Auto-inserting h264_mp4toannexb bitstream filter
frame=  461 fps=4.9 q=23.0 size=   11776kB time=00:00:15.10 bitrate=6388.7kbits/s dup=0 drop=1373 speed=0.16x    frame=  464 fps=4.9 q=23.0 size=   11776kB time=00:00:15.20 bitrate=6346.6kbits/s dup=0 drop=1381 speed=0.16x    frame=  467 fps=4.9 q=22.0 size=   12032kB time=00:00:15.30 bitrate=6442.2kbits/s dup=0 drop=1390 speed=0.16x    frame=  469 fps=4.9 q=22.0 size=   12032kB time=00:00:15.36 bitrate=6414.3kbits/s dup=0 drop=1396 speed=0.16x    frame=  471 fps=4.9 q=22.0 size=   12288kB time=00:00:15.43 bitrate=6522.5kbits/s dup=0 drop=1404 speed=0.159x    frame=  474 fps=4.9 q=22.0 size=   12288kB time=00:00:15.53 bitrate=6480.5kbits/s dup=0 drop=1411 speed=0.159x    frame=  476 fps=4.9 q=23.0 size=   12288kB time=00:00:15.60 bitrate=6452.8kbits/s dup=0 drop=1419 speed=0.159x    frame=  478 fps=4.9 q=23.0 size=   12544kB time=00:00:15.66 bitrate=6559.2kbits/s dup=0 drop=1425 speed=0.159x    frame=  480 fps=4.8 q=23.0 size=   12544kB time=00:00:15.73 bitrate=6531.4kbits/s dup=0 drop=1431 speed=0.159x    frame=  483 fps=4.9 q=23.0 size=   12800kB time=00:00:15.83 bitrate=6622.6kbits/s dup=0 drop=1438 speed=0.159x    frame=  485 fps=4.8 q=23.0 size=   12800kB time=00:00:15.90 bitrate=6594.8kbits/s dup=0 drop=1444 speed=0.159x    frame=  487 fps=4.8 q=23.0 size=   12800kB time=00:00:15.96 bitrate=6567.3kbits/s dup=0 drop=1450 speed=0.159x    frame=  489 fps=4.8 q=23.0 size=   13056kB time=00:00:16.03 bitrate=6670.8kbits/s dup=0 drop=1458 speed=0.158x    frame=  492 fps=4.8 q=23.0 size=   13056kB time=00:00:16.13 bitrate=6629.4kbits/s dup=0 drop=1465 speed=0.159x    frame=  494 fps=4.8 q=23.0 size=   13312kB time=00:00:16.20 bitrate=6731.6kbits/s dup=0 drop=1471 speed=0.158x    frame=  496 fps=4.8 q=23.0 size=   13312kB time=00:00:16.26 bitrate=6704.0kbits/s dup=0 drop=1477 speed=0.158x    frame=  498 fps=4.8 q=23.0 size=   13312kB time=00:00:16.33 bitrate=6676.6kbits/s dup=0 drop=1484 speed=0.158x    frame=  500 fps=4.8 q=22.0 size=   13568kB time=00:00:16.40 bitrate=6777.4kbits/s dup=0 drop=1491 speed=0.158x    frame=  503 fps=4.8 q=20.0 size=   13568kB time=00:00:16.50 bitrate=6736.3kbits/s dup=0 drop=1498 speed=0.158x    frame=  505 fps=4.8 q=24.0 size=   13824kB time=00:00:16.56 bitrate=6835.8kbits/s dup=0 drop=1506 speed=0.158x    [mov,mp4,m4a,3gp,3g2,mj2 @ 0xad4fb0] Auto-inserting h264_mp4toannexb bitstream filter
frame=  507 fps=4.8 q=22.0 size=   13824kB time=00:00:16.63 bitrate=6808.4kbits/s dup=0 drop=1510 speed=0.158x    frame=  509 fps=4.8 q=23.0 size=   14080kB time=00:00:16.70 bitrate=6906.8kbits/s dup=0 drop=1517 speed=0.157x    frame=  511 fps=4.8 q=22.0 size=   14080kB time=00:00:16.76 bitrate=6879.3kbits/s dup=0 drop=1523 speed=0.157x    frame=  513 fps=4.8 q=22.0 size=   14080kB time=00:00:16.83 bitrate=6852.1kbits/s dup=0 drop=1528 speed=0.157x    frame=  514 fps=4.8 q=22.0 size=   14080kB time=00:00:16.86 bitrate=6838.5kbits/s dup=0 drop=1533 speed=0.157x    frame=  516 fps=4.8 q=22.0 size=   14336kB time=00:00:16.93 bitrate=6935.5kbits/s dup=0 drop=1539 speed=0.156x    frame=  518 fps=4.8 q=22.0 size=   14336kB time=00:00:17.00 bitrate=6908.3kbits/s dup=0 drop=1544 speed=0.156x    frame=  520 fps=4.8 q=22.0 size=   14336kB time=00:00:17.06 bitrate=6881.3kbits/s dup=0 drop=1550 speed=0.156x    frame=  523 fps=4.8 q=22.0 size=   14592kB time=00:00:17.16 bitrate=6963.4kbits/s dup=0 drop=1560 speed=0.156x    frame=  526 fps=4.8 q=19.0 size=   14592kB time=00:00:17.26 bitrate=6923.0kbits/s dup=0 drop=1567 speed=0.156x    frame=  529 fps=4.8 q=17.0 size=   14592kB time=00:00:17.36 bitrate=6883.2kbits/s dup=0 drop=1576 speed=0.156x    frame=  532 fps=4.8 q=17.0 size=   14848kB time=00:00:17.46 bitrate=6963.8kbits/s dup=0 drop=1587 speed=0.157x    frame=  536 fps=4.8 q=15.0 size=   14848kB time=00:00:17.60 bitrate=6911.1kbits/s dup=0 drop=1597 speed=0.157x    frame=  539 fps=4.8 q=16.0 size=   14848kB time=00:00:17.70 bitrate=6872.0kbits/s dup=0 drop=1608 speed=0.157x    frame=  543 fps=4.8 q=15.0 size=   14848kB time=00:00:17.83 bitrate=6820.6kbits/s dup=0 drop=1618 speed=0.158x    frame=  547 fps=4.8 q=15.0 size=   14848kB time=00:00:17.96 bitrate=6770.0kbits/s dup=0 drop=1630 speed=0.158x    frame=  550 fps=4.8 q=15.0 size=   14848kB time=00:00:18.06 bitrate=6732.6kbits/s dup=0 drop=1639 speed=0.158x    [mov,mp4,m4a,3gp,3g2,mj2 @ 0xad4fb0] Auto-inserting h264_mp4toannexb bitstream filter
frame=  552 fps=4.8 q=15.0 size=   14848kB time=00:00:18.13 bitrate=6707.8kbits/s dup=0 drop=1646 speed=0.158x    frame=  555 fps=4.8 q=15.0 size=   14848kB time=00:00:18.23 bitrate=6671.0kbits/s dup=0 drop=1655 speed=0.158x    frame=  559 fps=4.8 q=15.0 size=   14848kB time=00:00:18.36 bitrate=6622.6kbits/s dup=0 drop=1666 speed=0.159x    frame=  562 fps=4.8 q=16.0 size=   14848kB time=00:00:18.46 bitrate=6586.7kbits/s dup=0 drop=1677 speed=0.159x    frame=  566 fps=4.8 q=15.0 size=   14848kB time=00:00:18.60 bitrate=6539.5kbits/s dup=0 drop=1687 speed=0.159x    frame=  569 fps=4.8 q=16.0 size=   14848kB time=00:00:18.70 bitrate=6504.5kbits/s dup=0 drop=1698 speed=0.159x    frame=  573 fps=4.9 q=16.0 size=   14848kB time=00:00:18.83 bitrate=6458.5kbits/s dup=0 drop=1708 speed=0.16x    frame=  577 fps=4.9 q=16.0 size=   14848kB time=00:00:18.96 bitrate=6413.1kbits/s dup=0 drop=1720 speed=0.16x    frame=  580 fps=4.9 q=16.0 size=   14848kB time=00:00:19.06 bitrate=6379.4kbits/s dup=0 drop=1731 speed=0.16x    frame=  584 fps=4.9 q=16.0 size=   14848kB time=00:00:19.20 bitrate=6335.1kbits/s dup=0 drop=1741 speed=0.161x    frame=  587 fps=4.9 q=16.0 size=   14848kB time=00:00:19.30 bitrate=6302.3kbits/s dup=0 drop=1752 speed=0.161x    frame=  591 fps=4.9 q=15.0 size=   14848kB time=00:00:19.43 bitrate=6259.1kbits/s dup=0 drop=1762 speed=0.161x    frame=  595 fps=4.9 q=16.0 size=   14848kB time=00:00:19.56 bitrate=6216.4kbits/s dup=0 drop=1774 speed=0.161x    [mov,mp4,m4a,3gp,3g2,mj2 @ 0xad4fb0] Auto-inserting h264_mp4toannexb bitstream filter
frame=  597 fps=4.9 q=16.0 size=   15104kB time=00:00:19.63 bitrate=6302.1kbits/s dup=0 drop=1782 speed=0.161x    frame=  600 fps=4.9 q=25.0 size=   15104kB time=00:00:19.73 bitrate=6270.2kbits/s dup=0 drop=1789 speed=0.161x    frame=  602 fps=4.9 q=24.0 size=   15104kB time=00:00:19.80 bitrate=6249.1kbits/s dup=0 drop=1797 speed=0.161x    frame=  605 fps=4.9 q=22.0 size=   15104kB time=00:00:19.90 bitrate=6217.7kbits/s dup=0 drop=1804 speed=0.161x    frame=  607 fps=4.9 q=22.0 size=   15104kB time=00:00:19.96 bitrate=6196.9kbits/s dup=0 drop=1812 speed=0.161x    frame=  609 fps=4.9 q=22.0 size=   15104kB time=00:00:20.03 bitrate=6176.3kbits/s dup=0 drop=1818 speed=0.161x    frame=  612 fps=4.9 q=22.0 size=   15360kB time=00:00:20.13 bitrate=6249.8kbits/s dup=0 drop=1825 speed=0.161x    frame=  613 fps=4.9 q=22.0 size=   15360kB time=00:00:20.16 bitrate=6239.5kbits/s dup=0 drop=1830 speed=0.161x    frame=  615 fps=4.9 q=25.0 size=   15360kB time=00:00:20.23 bitrate=6218.9kbits/s dup=0 drop=1836 speed=0.16x    frame=  618 fps=4.9 q=24.0 size=   15616kB time=00:00:20.33 bitrate=6291.5kbits/s dup=0 drop=1843 speed=0.161x    frame=  620 fps=4.9 q=24.0 size=   15616kB time=00:00:20.40 bitrate=6270.9kbits/s dup=0 drop=1849 speed=0.16x    frame=  622 fps=4.9 q=24.0 size=   15616kB time=00:00:20.46 bitrate=6250.5kbits/s dup=0 drop=1855 speed=0.16x    frame=  623 fps=4.9 q=24.0 size=   15872kB time=00:00:20.50 bitrate=6342.6kbits/s dup=0 drop=1860 speed=0.16x    frame=  626 fps=4.9 q=24.0 size=   15872kB time=00:00:20.60 bitrate=6311.8kbits/s dup=0 drop=1868 speed=0.16x    frame=  628 fps=4.9 q=24.0 size=   16128kB time=00:00:20.66 bitrate=6392.9kbits/s dup=0 drop=1874 speed=0.16x    frame=  631 fps=4.9 q=24.0 size=   16128kB time=00:00:20.76 bitrate=6362.1kbits/s dup=0 drop=1882 speed=0.16x    frame=  632 fps=4.9 q=24.0 size=   16128kB time=00:00:20.80 bitrate=6351.9kbits/s dup=0 drop=1886 speed=0.16x    frame=  634 fps=4.8 q=23.0 size=   16384kB time=00:00:20.86 bitrate=6432.2kbits/s dup=0 drop=1892 speed=0.16x    frame=  636 fps=4.8 q=23.0 size=   16384kB time=00:00:20.93 bitrate=6411.7kbits/s dup=0 drop=1899 speed=0.159x    frame=  638 fps=4.8 q=23.0 size=   16640kB time=00:00:21.00 bitrate=6491.2kbits/s dup=0 drop=1903 speed=0.159x    frame=  640 fps=4.8 q=23.0 size=   16640kB time=00:00:21.06 bitrate=6470.6kbits/s dup=0 drop=1909 speed=0.159x    [mov,mp4,m4a,3gp,3g2,mj2 @ 0xad4fb0] Auto-inserting h264_mp4toannexb bitstream filter
frame=  641 fps=4.8 q=23.0 size=   16640kB time=00:00:21.10 bitrate=6460.4kbits/s dup=0 drop=1913 speed=0.159x    frame=  644 fps=4.8 q=24.0 size=   16896kB time=00:00:21.20 bitrate=6528.9kbits/s dup=0 drop=1921 speed=0.159x    frame=  646 fps=4.8 q=23.0 size=   16896kB time=00:00:21.26 bitrate=6508.4kbits/s dup=0 drop=1927 speed=0.159x    frame=  648 fps=4.8 q=22.0 size=   17152kB time=00:00:21.33 bitrate=6586.4kbits/s dup=0 drop=1933 speed=0.158x    frame=  650 fps=4.8 q=23.0 size=   17152kB time=00:00:21.40 bitrate=6565.8kbits/s dup=0 drop=1940 speed=0.158x    frame=  653 fps=4.8 q=24.0 size=   17408kB time=00:00:21.50 bitrate=6632.9kbits/s dup=0 drop=1948 speed=0.158x    frame=  655 fps=4.8 q=23.0 size=   17408kB time=00:00:21.56 bitrate=6612.3kbits/s dup=0 drop=1955 speed=0.158x    frame=  657 fps=4.8 q=23.0 size=   17408kB time=00:00:21.63 bitrate=6592.0kbits/s dup=0 drop=1960 speed=0.158x    frame=  659 fps=4.8 q=23.0 size=   17664kB time=00:00:21.70 bitrate=6668.4kbits/s dup=0 drop=1968 speed=0.158x    frame=  662 fps=4.8 q=23.0 size=   17664kB time=00:00:21.80 bitrate=6637.8kbits/s dup=0 drop=1975 speed=0.158x    frame=  664 fps=4.8 q=23.0 size=   17920kB time=00:00:21.86 bitrate=6713.4kbits/s dup=0 drop=1981 speed=0.158x    frame=  666 fps=4.8 q=23.0 size=   17920kB time=00:00:21.93 bitrate=6693.0kbits/s dup=0 drop=1987 speed=0.158x    frame=  668 fps=4.8 q=23.0 size=   17920kB time=00:00:22.00 bitrate=6672.8kbits/s dup=0 drop=1993 speed=0.158x    frame=  669 fps=4.8 q=23.0 size=   17920kB time=00:00:22.03 bitrate=6662.7kbits/s dup=0 drop=1998 speed=0.157x    frame=  671 fps=4.8 q=23.0 size=   18176kB time=00:00:22.10 bitrate=6737.5kbits/s dup=0 drop=2004 speed=0.157x    frame=  673 fps=4.8 q=23.0 size=   18176kB time=00:00:22.16 bitrate=6717.2kbits/s dup=0 drop=2009 speed=0.157x    frame=  676 fps=4.8 q=23.0 size=   18432kB time=00:00:22.26 bitrate=6781.2kbits/s dup=0 drop=2017 speed=0.157x    frame=  678 fps=4.8 q=23.0 size=   18432kB time=00:00:22.33 bitrate=6761.0kbits/s dup=0 drop=2023 speed=0.157x    frame=  680 fps=4.8 q=23.0 size=   18688kB time=00:00:22.40 bitrate=6834.5kbits/s dup=0 drop=2029 speed=0.157x    frame=  682 fps=4.7 q=23.0 size=   18688kB time=00:00:22.46 bitrate=6814.2kbits/s dup=0 drop=2035 speed=0.156x    frame=  683 fps=4.7 q=23.0 size=   18688kB time=00:00:22.50 bitrate=6804.1kbits/s dup=0 drop=2039 speed=0.156x    frame=  685 fps=4.7 q=22.0 size=   18688kB time=00:00:22.56 bitrate=6784.0kbits/s dup=0 drop=2044 speed=0.156x    [mov,mp4,m4a,3gp,3g2,mj2 @ 0xad4fb0] Auto-inserting h264_mp4toannexb bitstream filter
frame=  686 fps=4.7 q=22.0 size=   18688kB time=00:00:22.60 bitrate=6774.0kbits/s dup=0 drop=2047 speed=0.155x    frame=  687 fps=4.7 q=22.0 size=   18944kB time=00:00:22.63 bitrate=6856.7kbits/s dup=0 drop=2050 speed=0.155x    frame=  688 fps=4.7 q=22.0 size=   18944kB time=00:00:22.66 bitrate=6846.6kbits/s dup=0 drop=2054 speed=0.155x    frame=  690 fps=4.7 q=23.0 size=   18944kB time=00:00:22.73 bitrate=6826.5kbits/s dup=0 drop=2059 speed=0.154x    frame=  691 fps=4.7 q=23.0 size=   18944kB time=00:00:22.76 bitrate=6816.5kbits/s dup=0 drop=2062 speed=0.154x    frame=  692 fps=4.7 q=22.0 size=   18944kB time=00:00:22.80 bitrate=6806.5kbits/s dup=0 drop=2065 speed=0.154x    frame=  693 fps=4.7 q=22.0 size=   19200kB time=00:00:22.83 bitrate=6888.5kbits/s dup=0 drop=2069 speed=0.153x    frame=  695 fps=4.7 q=23.0 size=   19200kB time=00:00:22.90 bitrate=6868.4kbits/s dup=0 drop=2074 speed=0.153x    frame=  696 fps=4.6 q=23.0 size=   19200kB time=00:00:22.93 bitrate=6858.4kbits/s dup=0 drop=2077 speed=0.153x    frame=  697 fps=4.6 q=23.0 size=   19200kB time=00:00:22.96 bitrate=6848.5kbits/s dup=0 drop=2080 speed=0.152x    frame=  699 fps=4.6 q=23.0 size=   19456kB time=00:00:23.03 bitrate=6919.7kbits/s dup=0 drop=2086 speed=0.152x    frame=  701 fps=4.6 q=22.0 size=   19456kB time=00:00:23.10 bitrate=6899.7kbits/s dup=0 drop=2092 speed=0.152x    frame=  702 fps=4.6 q=22.0 size=   19456kB time=00:00:23.13 bitrate=6889.8kbits/s dup=0 drop=2095 speed=0.152x    frame=  704 fps=4.6 q=23.0 size=   19456kB time=00:00:23.20 bitrate=6870.0kbits/s dup=0 drop=2101 speed=0.152x    frame=  705 fps=4.6 q=21.0 size=   19712kB time=00:00:23.23 bitrate=6950.4kbits/s dup=0 drop=2104 speed=0.151x    frame=  707 fps=4.6 q=19.0 size=   19712kB time=00:00:23.30 bitrate=6930.5kbits/s dup=0 drop=2110 speed=0.151x    frame=  708 fps=4.6 q=18.0 size=   19712kB time=00:00:23.33 bitrate=6920.6kbits/s dup=0 drop=2115 speed=0.151x    frame=  711 fps=4.6 q=17.0 size=   19712kB time=00:00:23.43 bitrate=6891.1kbits/s dup=0 drop=2122 speed=0.151x    frame=  713 fps=4.6 q=16.0 size=   19712kB time=00:00:23.50 bitrate=6871.5kbits/s dup=0 drop=2130 speed=0.151x    frame=  716 fps=4.6 q=15.0 size=   19712kB time=00:00:23.60 bitrate=6842.4kbits/s dup=0 drop=2137 speed=0.151x    frame=  718 fps=4.6 q=15.0 size=   19712kB time=00:00:23.66 bitrate=6823.1kbits/s dup=0 drop=2143 speed=0.151x    frame=  720 fps=4.6 q=15.0 size=   19968kB time=00:00:23.73 bitrate=6892.3kbits/s dup=0 drop=2149 speed=0.151x    frame=  722 fps=4.6 q=15.0 size=   19968kB time=00:00:23.80 bitrate=6873.0kbits/s dup=0 drop=2157 speed=0.151x    frame=  725 fps=4.6 q=15.0 size=   19968kB time=00:00:23.90 bitrate=6844.3kbits/s dup=0 drop=2164 speed=0.151x    frame=  728 fps=4.6 q=15.0 size=   19968kB time=00:00:24.00 bitrate=6815.7kbits/s dup=0 drop=2173 speed=0.151x    [mov,mp4,m4a,3gp,3g2,mj2 @ 0xad4fb0] Auto-inserting h264_mp4toannexb bitstream filter
frame=  731 fps=4.6 q=15.0 size=   19968kB time=00:00:24.10 bitrate=6787.5kbits/s dup=0 drop=2182 speed=0.151x    frame=  734 fps=4.6 q=15.0 size=   19968kB time=00:00:24.20 bitrate=6759.4kbits/s dup=0 drop=2191 speed=0.151x    frame=  736 fps=4.6 q=15.0 size=   19968kB time=00:00:24.26 bitrate=6740.8kbits/s dup=0 drop=2199 speed=0.151x    frame=  739 fps=4.6 q=16.0 size=   19968kB time=00:00:24.36 bitrate=6713.2kbits/s dup=0 drop=2206 speed=0.151x    frame=  742 fps=4.6 q=16.0 size=   19968kB time=00:00:24.46 bitrate=6685.7kbits/s dup=0 drop=2215 speed=0.151x    frame=  744 fps=4.6 q=16.0 size=   19968kB time=00:00:24.53 bitrate=6667.6kbits/s dup=0 drop=2223 speed=0.151x    frame=  747 fps=4.6 q=15.0 size=   19968kB time=00:00:24.63 bitrate=6640.5kbits/s dup=0 drop=2230 speed=0.151x    frame=  750 fps=4.6 q=15.0 size=   19968kB time=00:00:24.73 bitrate=6613.7kbits/s dup=0 drop=2239 speed=0.151x    frame=  752 fps=4.6 q=15.0 size=   19968kB time=00:00:24.80 bitrate=6595.9kbits/s dup=0 drop=2247 speed=0.151x    frame=  755 fps=4.6 q=17.0 size=   19968kB time=00:00:24.90 bitrate=6569.4kbits/s dup=0 drop=2256 speed=0.152x    frame=  758 fps=4.6 q=16.0 size=   19968kB time=00:00:25.00 bitrate=6543.1kbits/s dup=0 drop=2263 speed=0.152x    frame=  760 fps=4.6 q=15.0 size=   19968kB time=00:00:25.06 bitrate=6525.7kbits/s dup=0 drop=2270 speed=0.152x    frame=  763 fps=4.6 q=16.0 size=   19968kB time=00:00:25.16 bitrate=6499.8kbits/s dup=0 drop=2278 speed=0.152x    frame=  765 fps=4.6 q=15.0 size=   19968kB time=00:00:25.23 bitrate=6482.6kbits/s dup=0 drop=2284 speed=0.152x    frame=  766 fps=4.6 q=16.0 size=   19968kB time=00:00:25.26 bitrate=6474.1kbits/s dup=0 drop=2287 speed=0.151x    frame=  768 fps=4.6 q=16.0 size=   19968kB time=00:00:25.33 bitrate=6457.0kbits/s dup=0 drop=2293 speed=0.151x    frame=  770 fps=4.6 q=16.0 size=   19968kB time=00:00:25.40 bitrate=6440.1kbits/s dup=0 drop=2299 speed=0.151x    frame=  771 fps=4.6 q=15.0 size=   19968kB time=00:00:25.43 bitrate=6431.6kbits/s dup=0 drop=2304 speed=0.151x    frame=  773 fps=4.6 q=16.0 size=   19968kB time=00:00:25.50 bitrate=6414.8kbits/s dup=0 drop=2310 speed=0.151x    frame=  775 fps=4.6 q=15.0 size=   19968kB time=00:00:25.56 bitrate=6398.1kbits/s dup=0 drop=2316 speed=0.151x    [mov,mp4,m4a,3gp,3g2,mj2 @ 0xad4fb0] Auto-inserting h264_mp4toannexb bitstream filter
frame=  777 fps=4.6 q=15.0 size=   19968kB time=00:00:25.63 bitrate=6381.4kbits/s dup=0 drop=2320 speed=0.151x    frame=  778 fps=4.6 q=16.0 size=   19968kB time=00:00:25.66 bitrate=6373.2kbits/s dup=0 drop=2325 speed=0.15x    frame=  780 fps=4.6 q=25.0 size=   19968kB time=00:00:25.73 bitrate=6356.7kbits/s dup=0 drop=2329 speed=0.15x    frame=  781 fps=4.5 q=24.0 size=   19968kB time=00:00:25.76 bitrate=6348.4kbits/s dup=0 drop=2333 speed=0.15x    frame=  782 fps=4.5 q=23.0 size=   19968kB time=00:00:25.80 bitrate=6340.2kbits/s dup=0 drop=2337 speed=0.15x    frame=  784 fps=4.5 q=22.0 size=   19968kB time=00:00:25.86 bitrate=6323.9kbits/s dup=0 drop=2341 speed=0.149x    frame=  785 fps=4.5 q=22.0 size=   20224kB time=00:00:25.90 bitrate=6396.7kbits/s dup=0 drop=2345 speed=0.149x    frame=  786 fps=4.5 q=22.0 size=   20224kB time=00:00:25.93 bitrate=6388.5kbits/s dup=0 drop=2348 speed=0.149x    frame=  787 fps=4.5 q=22.0 size=   20224kB time=00:00:25.96 bitrate=6380.3kbits/s dup=0 drop=2352 speed=0.149x    frame=  789 fps=4.5 q=22.0 size=   20224kB time=00:00:26.03 bitrate=6364.0kbits/s dup=0 drop=2356 speed=0.148x    frame=  790 fps=4.5 q=22.0 size=   20224kB time=00:00:26.06 bitrate=6355.8kbits/s dup=0 drop=2359 speed=0.148x    frame=  791 fps=4.5 q=22.0 size=   20224kB time=00:00:26.10 bitrate=6347.7kbits/s dup=0 drop=2364 speed=0.148x    frame=  793 fps=4.5 q=22.0 size=   20480kB time=00:00:26.16 bitrate=6411.7kbits/s dup=0 drop=2368 speed=0.148x    frame=  794 fps=4.5 q=22.0 size=   20480kB time=00:00:26.20 bitrate=6403.5kbits/s dup=0 drop=2372 speed=0.147x    frame=  795 fps=4.5 q=22.0 size=   20480kB time=00:00:26.23 bitrate=6395.4kbits/s dup=0 drop=2376 speed=0.147x    frame=  797 fps=4.5 q=22.0 size=   20480kB time=00:00:26.30 bitrate=6379.2kbits/s dup=0 drop=2380 speed=0.147x    frame=  799 fps=4.5 q=22.0 size=   20736kB time=00:00:26.36 bitrate=6442.6kbits/s dup=0 drop=2386 speed=0.147x    frame=  800 fps=4.4 q=22.0 size=   20736kB time=00:00:26.40 bitrate=6434.4kbits/s dup=0 drop=2391 speed=0.147x    frame=  802 fps=4.4 q=22.0 size=   20736kB time=00:00:26.46 bitrate=6418.2kbits/s dup=0 drop=2397 speed=0.147x    frame=  804 fps=4.4 q=22.0 size=   20736kB time=00:00:26.53 bitrate=6402.1kbits/s dup=0 drop=2401 speed=0.146x    frame=  806 fps=4.4 q=22.0 size=   20992kB time=00:00:26.60 bitrate=6464.9kbits/s dup=0 drop=2407 speed=0.146x    frame=  807 fps=4.4 q=22.0 size=   20992kB time=00:00:26.63 bitrate=6456.8kbits/s dup=0 drop=2412 speed=0.146x    frame=  809 fps=4.4 q=22.0 size=   20992kB time=00:00:26.70 bitrate=6440.7kbits/s dup=0 drop=2418 speed=0.146x    frame=  811 fps=4.4 q=22.0 size=   20992kB time=00:00:26.76 bitrate=6424.6kbits/s dup=0 drop=2422 speed=0.146x    frame=  813 fps=4.4 q=22.0 size=   21248kB time=00:00:26.83 bitrate=6486.8kbits/s dup=0 drop=2428 speed=0.146x    frame=  815 fps=4.4 q=22.0 size=   21248kB time=00:00:26.90 bitrate=6470.8kbits/s dup=0 drop=2434 speed=0.146x    frame=  817 fps=4.4 q=22.0 size=   21248kB time=00:00:26.96 bitrate=6454.8kbits/s dup=0 drop=2440 speed=0.145x    frame=  819 fps=4.4 q=22.0 size=   21248kB time=00:00:27.03 bitrate=6438.9kbits/s dup=0 drop=2446 speed=0.145x    frame=  820 fps=4.4 q=22.0 size=   21504kB time=00:00:27.06 bitrate=6508.4kbits/s dup=0 drop=2451 speed=0.145x    [mov,mp4,m4a,3gp,3g2,mj2 @ 0xad4fb0] Auto-inserting h264_mp4toannexb bitstream filter
frame=  822 fps=4.4 q=22.0 size=   21504kB time=00:00:27.13 bitrate=6492.4kbits/s dup=0 drop=2455 speed=0.145x    frame=  824 fps=4.4 q=22.0 size=   21504kB time=00:00:27.20 bitrate=6476.5kbits/s dup=0 drop=2461 speed=0.145x    frame=  825 fps=4.4 q=22.0 size=   21504kB time=00:00:27.23 bitrate=6468.6kbits/s dup=0 drop=2466 speed=0.144x    frame=  826 fps=4.4 q=22.0 size=   21760kB time=00:00:27.26 bitrate=6537.6kbits/s dup=0 drop=2469 speed=0.144x    frame=  828 fps=4.4 q=22.0 size=   21760kB time=00:00:27.33 bitrate=6521.6kbits/s dup=0 drop=2474 speed=0.144x    frame=  830 fps=4.4 q=22.0 size=   21760kB time=00:00:27.40 bitrate=6505.8kbits/s dup=0 drop=2480 speed=0.144x    frame=  832 fps=4.4 q=22.0 size=   21760kB time=00:00:27.46 bitrate=6490.0kbits/s dup=0 drop=2485 speed=0.144x    frame=  833 fps=4.4 q=22.0 size=   22016kB time=00:00:27.50 bitrate=6558.4kbits/s dup=0 drop=2489 speed=0.144x    frame=  834 fps=4.3 q=22.0 size=   22016kB time=00:00:27.53 bitrate=6550.4kbits/s dup=0 drop=2492 speed=0.144x    frame=  836 fps=4.3 q=23.0 size=   22016kB time=00:00:27.60 bitrate=6534.6kbits/s dup=0 drop=2497 speed=0.143x    frame=  837 fps=4.3 q=23.0 size=   22016kB time=00:00:27.63 bitrate=6526.7kbits/s dup=0 drop=2500 speed=0.143x    frame=  838 fps=4.3 q=23.0 size=   22016kB time=00:00:27.66 bitrate=6518.9kbits/s dup=0 drop=2505 speed=0.143x    frame=  839 fps=4.3 q=23.0 size=   22016kB time=00:00:27.70 bitrate=6511.0kbits/s dup=0 drop=2508 speed=0.143x    frame=  841 fps=4.3 q=23.0 size=   22272kB time=00:00:27.76 bitrate=6570.9kbits/s dup=0 drop=2512 speed=0.143x    frame=  842 fps=4.3 q=23.0 size=   22272kB time=00:00:27.80 bitrate=6563.0kbits/s dup=0 drop=2515 speed=0.142x    frame=  844 fps=4.3 q=22.0 size=   22272kB time=00:00:27.86 bitrate=6547.3kbits/s dup=0 drop=2521 speed=0.142x    frame=  845 fps=4.3 q=22.0 size=   22272kB time=00:00:27.90 bitrate=6539.5kbits/s dup=0 drop=2526 speed=0.142x    frame=  847 fps=4.3 q=22.0 size=   22528kB time=00:00:27.96 bitrate=6598.9kbits/s dup=0 drop=2532 speed=0.142x    frame=  849 fps=4.3 q=22.0 size=   22528kB time=00:00:28.03 bitrate=6583.2kbits/s dup=0 drop=2536 speed=0.142x    frame=  850 fps=4.3 q=22.0 size=   22528kB time=00:00:28.06 bitrate=6575.4kbits/s dup=0 drop=2541 speed=0.142x    frame=  851 fps=4.3 q=22.0 size=   22528kB time=00:00:28.10 bitrate=6567.6kbits/s dup=0 drop=2544 speed=0.141x    frame=  853 fps=4.3 q=22.0 size=   22784kB time=00:00:28.16 bitrate=6626.5kbits/s dup=0 drop=2548 speed=0.141x    frame=  854 fps=4.3 q=23.0 size=   22784kB time=00:00:28.20 bitrate=6618.7kbits/s dup=0 drop=2551 speed=0.141x    frame=  855 fps=4.3 q=23.0 size=   22784kB time=00:00:28.23 bitrate=6610.9kbits/s dup=0 drop=2554 speed=0.141x    frame=  856 fps=4.3 q=23.0 size=   22784kB time=00:00:28.26 bitrate=6603.1kbits/s dup=0 drop=2559 speed=0.141x    frame=  858 fps=4.3 q=22.0 size=   23040kB time=00:00:28.33 bitrate=6661.5kbits/s dup=0 drop=2563 speed=0.141x    frame=  859 fps=4.3 q=22.0 size=   23040kB time=00:00:28.36 bitrate=6653.7kbits/s dup=0 drop=2566 speed=0.14x    frame=  861 fps=4.2 q=22.0 size=   23040kB time=00:00:28.43 bitrate=6638.1kbits/s dup=0 drop=2572 speed=0.14x    frame=  863 fps=4.2 q=22.0 size=   23040kB time=00:00:28.50 bitrate=6622.6kbits/s dup=0 drop=2578 speed=0.14x    frame=  864 fps=4.2 q=22.0 size=   23040kB time=00:00:28.53 bitrate=6614.8kbits/s dup=0 drop=2583 speed=0.14x    [mov,mp4,m4a,3gp,3g2,mj2 @ 0xad4fb0] Auto-inserting h264_mp4toannexb bitstream filter
frame=  866 fps=4.2 q=22.0 size=   23296kB time=00:00:28.60 bitrate=6672.8kbits/s dup=0 drop=2587 speed=0.14x    frame=  867 fps=4.2 q=22.0 size=   23296kB time=00:00:28.63 bitrate=6665.0kbits/s dup=0 drop=2592 speed=0.14x    frame=  869 fps=4.2 q=23.0 size=   23296kB time=00:00:28.70 bitrate=6649.5kbits/s dup=0 drop=2596 speed=0.14x    frame=  870 fps=4.2 q=23.0 size=   23296kB time=00:00:28.73 bitrate=6641.8kbits/s dup=0 drop=2601 speed=0.14x    frame=  872 fps=4.2 q=22.0 size=   23552kB time=00:00:28.80 bitrate=6699.2kbits/s dup=0 drop=2605 speed=0.139x    frame=  873 fps=4.2 q=22.0 size=   23552kB time=00:00:28.83 bitrate=6691.5kbits/s dup=0 drop=2610 speed=0.139x    frame=  875 fps=4.2 q=22.0 size=   23552kB time=00:00:28.90 bitrate=6676.1kbits/s dup=0 drop=2614 speed=0.139x    frame=  877 fps=4.2 q=22.0 size=   23552kB time=00:00:28.96 bitrate=6660.7kbits/s dup=0 drop=2620 speed=0.139x    frame=  879 fps=4.2 q=22.0 size=   23808kB time=00:00:29.03 bitrate=6717.6kbits/s dup=0 drop=2626 speed=0.139x    frame=  880 fps=4.2 q=22.0 size=   23808kB time=00:00:29.06 bitrate=6709.9kbits/s dup=0 drop=2631 speed=0.139x    frame=  881 fps=4.2 q=22.0 size=   23808kB time=00:00:29.10 bitrate=6702.2kbits/s dup=0 drop=2634 speed=0.139x    frame=  883 fps=4.2 q=22.0 size=   23808kB time=00:00:29.16 bitrate=6686.9kbits/s dup=0 drop=2639 speed=0.139x    frame=  885 fps=4.2 q=21.0 size=   24064kB time=00:00:29.23 bitrate=6743.4kbits/s dup=0 drop=2644 speed=0.139x    frame=  887 fps=4.2 q=18.0 size=   24064kB time=00:00:29.30 bitrate=6728.1kbits/s dup=0 drop=2650 speed=0.139x    frame=  889 fps=4.2 q=26.0 size=   24064kB time=00:00:29.36 bitrate=6712.8kbits/s dup=0 drop=2656 speed=0.139x    frame=  890 fps=4.2 q=25.0 size=   24064kB time=00:00:29.40 bitrate=6705.2kbits/s dup=0 drop=2659 speed=0.138x    frame=  892 fps=4.2 q=23.0 size=   24064kB time=00:00:29.46 bitrate=6690.0kbits/s dup=0 drop=2665 speed=0.138x    [mov,mp4,m4a,3gp,3g2,mj2 @ 0xc11f30] Auto-inserting h264_mp4toannexb bitstream filter
frame=  893 fps=4.2 q=23.0 size=   24064kB time=00:00:29.50 bitrate=6682.4kbits/s dup=0 drop=2669 speed=0.138x    frame=  895 fps=4.2 q=23.0 size=   24320kB time=00:00:29.56 bitrate=6738.3kbits/s dup=0 drop=2675 speed=0.138x    frame=  897 fps=4.2 q=24.0 size=   24320kB time=00:00:29.63 bitrate=6723.2kbits/s dup=0 drop=2680 speed=0.138x    frame=  898 fps=4.2 q=24.0 size=   24320kB time=00:00:29.66 bitrate=6715.6kbits/s dup=0 drop=2685 speed=0.138x    frame=  900 fps=4.2 q=24.0 size=   24576kB time=00:00:29.73 bitrate=6771.1kbits/s dup=0 drop=2689 speed=0.138x    frame=  901 fps=4.2 q=24.0 size=   24576kB time=00:00:29.76 bitrate=6763.5kbits/s dup=0 drop=2694 speed=0.137x    frame=  903 fps=4.2 q=23.0 size=   24576kB time=00:00:29.83 bitrate=6748.4kbits/s dup=0 drop=2700 speed=0.137x    frame=  904 fps=4.2 q=23.0 size=   24832kB time=00:00:29.86 bitrate=6811.1kbits/s dup=0 drop=2703 speed=0.137x    frame=  906 fps=4.2 q=23.0 size=   24832kB time=00:00:29.93 bitrate=6795.9kbits/s dup=0 drop=2707 speed=0.137x    frame=  907 fps=4.1 q=23.0 size=   24832kB time=00:00:29.96 bitrate=6788.3kbits/s dup=0 drop=2712 speed=0.137x    frame=  909 fps=4.1 q=23.0 size=   24832kB time=00:00:30.03 bitrate=6773.3kbits/s dup=0 drop=2717 speed=0.137x    frame=  911 fps=4.1 q=23.0 size=   25088kB time=00:00:30.10 bitrate=6827.9kbits/s dup=0 drop=2722 speed=0.137x    frame=  912 fps=4.1 q=23.0 size=   25088kB time=00:00:30.13 bitrate=6820.4kbits/s dup=0 drop=2725 speed=0.137x    frame=  914 fps=4.1 q=23.0 size=   25088kB time=00:00:30.20 bitrate=6805.3kbits/s dup=0 drop=2731 speed=0.137x    frame=  916 fps=4.1 q=23.0 size=   25088kB time=00:00:30.26 bitrate=6790.3kbits/s dup=0 drop=2739 speed=0.137x    frame=  919 fps=4.1 q=23.0 size=   25344kB time=00:00:30.36 bitrate=6837.0kbits/s dup=0 drop=2746 speed=0.137x    frame=  921 fps=4.1 q=22.0 size=   25344kB time=00:00:30.43 bitrate=6822.1kbits/s dup=0 drop=2752 speed=0.137x    frame=  924 fps=4.1 q=22.0 size=   25600kB time=00:00:30.53 bitrate=6868.4kbits/s dup=0 drop=2761 speed=0.137x    frame=  926 fps=4.1 q=21.0 size=   25600kB time=00:00:30.60 bitrate=6853.4kbits/s dup=0 drop=2769 speed=0.137x    frame=  929 fps=4.1 q=17.0 size=   25600kB time=00:00:30.70 bitrate=6831.1kbits/s dup=0 drop=2776 speed=0.137x    frame=  932 fps=4.2 q=16.0 size=   25856kB time=00:00:30.80 bitrate=6877.0kbits/s dup=0 drop=2786 speed=0.137x    frame=  936 fps=4.2 q=16.0 size=   25856kB time=00:00:30.93 bitrate=6847.4kbits/s dup=0 drop=2797 speed=0.138x    frame=  938 fps=4.2 q=-1.0 Lsize=   25947kB time=00:00:31.23 bitrate=6805.4kbits/s dup=0 drop=2804 speed=0.139x    
video:25942kB audio:0kB subtitle:0kB other streams:0kB global headers:0kB muxing overhead: 0.018815%
[libx264 @ 0xad9bc0] frame I:4     Avg QP:17.25  size:145350
[libx264 @ 0xad9bc0] frame P:934   Avg QP:20.00  size: 27818
[libx264 @ 0xad9bc0] mb I  I16..4: 100.0%  0.0%  0.0%
[libx264 @ 0xad9bc0] mb P  I16..4: 15.8%  0.0%  0.0%  P16..4: 33.1%  0.0%  0.0%  0.0%  0.0%    skip:51.1%
[libx264 @ 0xad9bc0] coded y,uvDC,uvAC intra: 13.5% 34.3% 7.2% inter: 16.4% 20.4% 1.4%
[libx264 @ 0xad9bc0] i16 v,h,dc,p: 47% 25% 13% 16%
[libx264 @ 0xad9bc0] i8c dc,h,v,p: 50% 24% 18%  8%
[libx264 @ 0xad9bc0] kb/s:6796.70
